<?xml version="1.0" encoding="UTF-8"?>
<svg id="Layer_2" data-name="Layer 2" xmlns="http://www.w3.org/2000/svg" viewBox="0 0 1366.72 180.28">
  <defs>
    <style>
      .cls-1 {
        fill: #fff;
      }
    </style>
  </defs>
  <g id="Layer_1-2" data-name="Layer 1">
    <g>
      <g>
        <polygon class="cls-1" points="69.37 131.43 51.16 149.94 0 98.65 36.59 98.65 69.37 131.43"/>
        <polygon class="cls-1" points="163.07 98.65 81.44 180.28 63.84 162.65 81.44 143.5 81.53 143.6 126.48 98.65 163.07 98.65"/>
        <polygon class="cls-1" points="99.23 17.63 81.63 36.78 81.53 36.69 36.59 81.63 0 81.63 81.63 0 99.23 17.63"/>
        <polygon class="cls-1" points="163.07 81.63 126.48 81.63 93.7 48.85 111.88 30.31 163.07 81.63"/>
        <polygon class="cls-1" points="109.96 90.05 81.5 118.51 53.07 90.05 81.56 61.57 109.96 90.05"/>
      </g>
      <g>
        <path class="cls-1" d="m345.68,109.87c0,21.39-20.3,36.26-58.74,36.26-27.43,0-49.75-7.75-66.33-21.85l14.26-16.89c13.33,12.24,30.53,17.98,52.69,17.98s33.16-4.18,33.16-13.17-11.16-11.47-36.11-13.64c-30.99-2.64-59.82-9.45-59.82-32.7s24.17-35.02,57.65-35.02c23.71,0,44.17,5.89,57.96,16.58l-13.64,17.2c-11.93-9.14-26.65-12.86-44.32-13.02-14.72-.16-32.7,2.48-32.7,12.4,0,9.3,15.5,10.23,37.04,11.93,34.56,2.79,58.89,10.07,58.89,33.94Z"/>
        <path class="cls-1" d="m490.58,55.63h-47.42v87.1h-24.79V55.63h-47.11v-21.39h119.33v21.39Z"/>
        <path class="cls-1" d="m622.76,142.73l-31.15-36.88h-39.21v36.88h-24.64V34.25h74.85c26.5,0,46.49,12.24,46.49,35.8,0,18.44-12.24,29.91-30.22,34.09l33.47,38.59h-29.6Zm-21.54-57.34c13.02,0,22.63-3.1,22.63-15.19s-9.61-15.19-22.63-15.19h-48.97v30.38h48.97Z"/>
        <path class="cls-1" d="m734.18,34.25h-1.78l-11.53,22.2,21.99,43.2h-44.42l-10.46,20.15h65.26l11.62,22.94h26.81l-57.49-108.48Z"/>
        <path class="cls-1" d="m1309.23,34.25h-1.78l-11.53,22.2,21.99,43.2h-44.42l-10.46,20.15h65.26l11.62,22.94h26.81l-57.49-108.48Z"/>
        <path class="cls-1" d="m918.84,55.63h-47.42v87.1h-24.79V55.63h-47.11v-21.39h119.33v21.39Z"/>
        <path class="cls-1" d="m1067.76,121.96v20.77h-111.74V34.25h110.19v20.77h-85.55v22.32h71.44v20.77h-71.44v23.87h87.1Z"/>
        <path class="cls-1" d="m1231.26,120.72c-10.85,14.72-32.24,25.42-61.68,25.42-43.55,0-70.05-21.39-70.05-57.65s26.5-57.65,70.05-57.65c26.65,0,45.56,10.07,56.41,20.61l-19.37,14.1c-9.45-9.3-20.46-13.64-36.88-13.64-28.36,0-44.94,12.4-44.94,36.57s17.05,36.57,45.87,36.57c16.27,0,29.6-3.56,37.35-12.86v-10.54h-40.91v-20.15h64.16v39.21Z"/>
      </g>
    </g>
  </g>
</svg>