<?xml version="1.0" encoding="UTF-8"?>
<svg id="Layer_1" data-name="Layer 1" xmlns="http://www.w3.org/2000/svg" viewBox="0 0 1712.99 1131.64">
  <defs>
    <style>
      .cls-1 {
        fill: #fff;
      }
    </style>
  </defs>
  <rect x="-26.14" y="-35.59" width="1765.27" height="1202.82"/>
  <g>
    <g>
      <polygon class="cls-1" points="489.93 590.47 479.06 601.52 448.52 570.9 470.36 570.9 489.93 590.47"/>
      <polygon class="cls-1" points="545.87 570.9 497.14 619.64 486.63 609.11 497.14 597.68 497.19 597.74 524.03 570.9 545.87 570.9"/>
      <polygon class="cls-1" points="507.76 522.53 497.25 533.97 497.19 533.91 470.36 560.74 448.52 560.74 497.25 512.01 507.76 522.53"/>
      <polygon class="cls-1" points="545.87 560.74 524.03 560.74 504.46 541.17 515.31 530.1 545.87 560.74"/>
      <polygon class="cls-1" points="514.17 565.77 497.18 582.76 480.2 565.77 497.21 548.76 514.17 565.77"/>
    </g>
    <g>
      <path class="cls-1" d="m654.89,577.6c0,12.77-12.12,21.65-35.07,21.65-16.38,0-29.7-4.63-39.6-13.05l8.51-10.08c7.96,7.31,18.23,10.73,31.46,10.73s19.8-2.5,19.8-7.86-6.66-6.85-21.56-8.14c-18.5-1.57-35.71-5.64-35.71-19.52s14.43-20.91,34.42-20.91c14.16,0,26.37,3.52,34.6,9.9l-8.14,10.27c-7.12-5.46-15.91-7.68-26.46-7.77-8.79-.09-19.52,1.48-19.52,7.4,0,5.55,9.25,6.11,22.11,7.12,20.63,1.67,35.16,6.01,35.16,20.26Z"/>
      <path class="cls-1" d="m741.4,545.22h-28.31v52h-14.8v-52h-28.13v-12.77h71.24v12.77Z"/>
      <path class="cls-1" d="m820.32,597.22l-18.6-22.02h-23.41v22.02h-14.71v-64.77h44.69c15.82,0,27.76,7.31,27.76,21.37,0,11.01-7.31,17.86-18.04,20.35l19.98,23.04h-17.67Zm-12.86-34.23c7.77,0,13.51-1.85,13.51-9.07s-5.74-9.07-13.51-9.07h-29.24v18.13h29.24Z"/>
      <path class="cls-1" d="m886.83,532.45h-1.06l-6.88,13.25,13.13,25.79h-26.52l-6.25,12.03h38.96l6.94,13.69h16.01l-34.32-64.76Z"/>
      <path class="cls-1" d="m1230.14,532.45h-1.06l-6.88,13.25,13.13,25.79h-26.52l-6.25,12.03h38.96l6.94,13.69h16.01l-34.32-64.76Z"/>
      <path class="cls-1" d="m997.08,545.22h-28.31v52h-14.8v-52h-28.13v-12.77h71.24v12.77Z"/>
      <path class="cls-1" d="m1085.99,584.82v12.4h-66.71v-64.77h65.78v12.4h-51.07v13.32h42.65v12.4h-42.65v14.25h52Z"/>
      <path class="cls-1" d="m1183.59,584.08c-6.48,8.79-19.24,15.17-36.82,15.17-26,0-41.82-12.77-41.82-34.42s15.82-34.42,41.82-34.42c15.91,0,27.2,6.01,33.68,12.31l-11.56,8.42c-5.64-5.55-12.21-8.14-22.02-8.14-16.93,0-26.83,7.4-26.83,21.84s10.18,21.84,27.39,21.84c9.71,0,17.67-2.13,22.3-7.68v-6.29h-24.43v-12.03h38.3v23.41Z"/>
    </g>
  </g>
</svg>